<svg xmlns="http://www.w3.org/2000/svg" width="51.73" height="51.856" viewBox="0 0 51.73 51.856"><g transform="translate(-176.504 -194.987) rotate(-39)"><path d="M18.063,280.412a2.1,2.1,0,0,0-.555,4.1v2.824a11.156,11.156,0,0,0-7.064,3.032l-2.561-2.6a2.11,2.11,0,0,0,.314-1.1,2.077,2.077,0,0,0-2.04-2.1,2.1,2.1,0,0,0,0,4.192,1.962,1.962,0,0,0,.853-.2l2.613,2.659A11.777,11.777,0,0,0,6.728,298.4H4.044a2.057,2.057,0,0,0-1.958-1.548,2.1,2.1,0,0,0,0,4.2,2.049,2.049,0,0,0,1.929-1.451H6.728a11.768,11.768,0,0,0,2.895,7.177l-2.8,2.846a1.958,1.958,0,0,0-.873-.212,2.1,2.1,0,0,0,0,4.2,2.081,2.081,0,0,0,2.04-2.1,2.108,2.108,0,0,0-.3-1.079l2.755-2.8a11.159,11.159,0,0,0,7.064,3.03v2.929a2.039,2.039,0,1,0,1.166-.015v-2.915a11.154,11.154,0,0,0,7.047-3.044l2.75,2.8a2.106,2.106,0,0,0-.285,1.047,2.041,2.041,0,1,0,2.04-2.1,1.964,1.964,0,0,0-.9.228l-2.781-2.829a11.772,11.772,0,0,0,2.877-7.157H32.5a2.049,2.049,0,0,0,1.9,1.344,2.1,2.1,0,1,0-1.991-2.542H29.421a11.781,11.781,0,0,0-2.878-7.157l2.787-2.833a1.968,1.968,0,0,0,.846.2,2.1,2.1,0,1,0-2.041-2.1,2.11,2.11,0,0,0,.318,1.106l-2.73,2.776a11.151,11.151,0,0,0-7.048-3.047V284.5a2.1,2.1,0,0,0-.612-4.085Zm0,1.2a.9.9,0,1,1-.873.9A.876.876,0,0,1,18.063,281.611Zm12.113,4a.9.9,0,1,1-.875.9A.877.877,0,0,1,30.176,285.608Zm-24.018.159a.9.9,0,1,1-.873.9A.877.877,0,0,1,6.157,285.767Zm11.918,2.755a10.478,10.478,0,0,1,0,20.949,10.478,10.478,0,0,1,0-20.949Zm-4.627,3.59a2.1,2.1,0,1,0,2.045,2.1A2.077,2.077,0,0,0,13.448,292.112Zm9.488,0a2.1,2.1,0,1,0,2.04,2.1A2.082,2.082,0,0,0,22.936,292.112Zm-9.488,1.2a.9.9,0,1,1-.873.9A.881.881,0,0,1,13.448,293.31Zm9.488,0a.9.9,0,1,1-.878.9A.877.877,0,0,1,22.936,293.31ZM18.075,296a3,3,0,1,0,2.914,3A2.969,2.969,0,0,0,18.075,296Zm0,1.2a1.8,1.8,0,1,1-1.752,1.8A1.766,1.766,0,0,1,18.075,297.2Zm16.327.743a.9.9,0,1,1-.874.9A.88.88,0,0,1,34.4,297.939Zm-32.316.106a.9.9,0,1,1-.875.9A.88.88,0,0,1,2.086,298.046ZM13.5,301.163a2.1,2.1,0,1,0,2.044,2.1A2.077,2.077,0,0,0,13.5,301.163Zm9.5.848a2.1,2.1,0,1,0,2.041,2.1A2.077,2.077,0,0,0,23,302.011Zm-9.5.35a.9.9,0,1,1-.873.9A.88.88,0,0,1,13.5,302.361Zm9.5.849a.9.9,0,1,1-.874.9A.876.876,0,0,1,23,303.211Zm7.223,7.34a.9.9,0,1,1-.873.9A.876.876,0,0,1,30.227,310.55ZM5.951,310.6a.9.9,0,1,1-.875.9A.876.876,0,0,1,5.951,310.6Zm12.163,4.068a.9.9,0,1,1-.873.9A.877.877,0,0,1,18.114,314.671Z" transform="translate(0)"/></g></svg>