<svg xmlns="http://www.w3.org/2000/svg" xmlns:xlink="http://www.w3.org/1999/xlink" width="155" height="155" viewBox="0 0 155 155"><defs><style>.a{fill:#fff;opacity:0.3;}.b{fill:url(#c);}.c{filter:url(#a);}</style><filter id="a" x="0" y="0" width="155" height="155" filterUnits="userSpaceOnUse"><feOffset dy="11" input="SourceAlpha"/><feGaussianBlur stdDeviation="17.5" result="b"/><feFlood flood-opacity="0.161"/><feComposite operator="in" in2="b"/><feComposite in="SourceGraphic"/></filter><linearGradient id="c" x1="0.5" x2="0.5" y2="1" gradientUnits="objectBoundingBox"><stop offset="0" stop-color="#1eced6"/><stop offset="0.704" stop-color="#1ccdd1"/><stop offset="1" stop-color="#12cab5"/></linearGradient></defs><g transform="translate(3.5 -10.5)"><g class="c" transform="matrix(1, 0, 0, 1, -3.5, 10.5)"><circle class="a" cx="25" cy="25" r="25" transform="translate(52.5 41.5)"/></g><g transform="translate(55.526 59.441)"><g transform="translate(8.819 3.068)"><g transform="translate(0 0)"><path class="b" d="M125.194,49.723h-.767V65.444l-11.2,11.2.537.537a15.769,15.769,0,0,0,11.35,4.755,16.1,16.1,0,1,0,.077-32.209ZM125.118,80.4a14.352,14.352,0,0,1-9.739-3.758l10.506-10.506V51.257a14.581,14.581,0,0,1-.767,29.142Z" transform="translate(-113.231 -49.723)"/></g></g><g transform="translate(0.077 18.175)"><g transform="translate(0 0)"><path class="b" d="M.984,245.533l.077.767a15.907,15.907,0,0,0,4.6,9.816l.537.537,12.96-12.96Zm1.611,1.38,12.347-1.227L6.2,254.428A14.665,14.665,0,0,1,2.595,246.913Z" transform="translate(-0.984 -243.692)"/></g></g><g transform="translate(0 0)"><path class="b" d="M16.1,10.338A16.1,16.1,0,0,0,0,26.443a11.322,11.322,0,0,0,.077,1.61l.077.767,16.718-1.687V10.338Zm-.767,15.414-13.8,1.38v-.69a14.573,14.573,0,0,1,13.8-14.571Z" transform="translate(0 -10.338)"/></g></g></g></svg>