<svg xmlns="http://www.w3.org/2000/svg" xmlns:xlink="http://www.w3.org/1999/xlink" width="105" height="105" viewBox="50 38 55 60"><defs><style>.a{fill:#fff;}.b{fill:url(#c);}.c{filter:url(#a);}</style><filter id="a" x="0" y="0" width="155" height="155" filterUnits="userSpaceOnUse"><feOffset dy="11" input="SourceAlpha"/><feGaussianBlur stdDeviation="17.5" result="b"/><feFlood flood-opacity="0.01"/><feComposite operator="in" in2="b"/><feComposite in="SourceGraphic"/></filter><linearGradient id="c" x1="0.5" x2="0.5" y2="1" gradientUnits="objectBoundingBox"><stop offset="0" stop-color="#20cfda"/><stop offset="1" stop-color="#13cbba"/></linearGradient></defs><g transform="translate(-208.5 -2.5)"><g class="c" transform="matrix(1, 0, 0, 1, 208.5, 2.5)"><circle class="a" cx="25" cy="25" r="25" transform="translate(52.5 41.5)"/></g><g transform="translate(268.096 53.873)"><path class="b" d="M34.737,71.868h-2.99a14.525,14.525,0,0,0,.638-8.3c-.806-3.437-3.527-7.168-7.559-7.168a7.812,7.812,0,0,0-3.259.755A15.979,15.979,0,0,0,17.805,59.5a15.256,15.256,0,0,0-3.763-2.347,7.93,7.93,0,0,0-3.259-.755c-4.031,0-6.753,3.731-7.559,7.168a14.891,14.891,0,0,0,.941,9.054H.538a.687.687,0,0,0,0,1.341H4.8a9.268,9.268,0,0,0,.6,1.132c3.494,6.288,11.086,13.12,12.464,13.54v.042a.1.1,0,0,0,.067-.042h.1v-.042c1.176-.713,8.466-6.581,12.3-13.54a16.431,16.431,0,0,0,.941-1.886H34.8a.607.607,0,0,0,.538-.671A.618.618,0,0,0,34.737,71.868Zm-5.375,2.473C25.8,80.838,19.25,86.078,17.839,87.21,16.394,86.078,9.877,80.8,6.282,74.341l-.2-.377h4.938a.551.551,0,0,0,.5-.377l2.251-5.533L17.3,79.329a.563.563,0,0,0,.5.419h.034a.575.575,0,0,0,.5-.5l3.091-13.2,1.646,6.665a.6.6,0,0,0,.437.461.539.539,0,0,0,.538-.293l1.31-2.389,1.109,2.347a.527.527,0,0,0,.47.335h3.024C29.765,73.586,29.563,73.964,29.362,74.341Zm1.209-2.473H27.279L25.9,68.934a.527.527,0,0,0-.47-.335.486.486,0,0,0-.47.293l-1.142,2.1-1.848-7.5a.66.66,0,0,0-.538-.5.608.608,0,0,0-.538.5L17.772,76.94,14.379,66.125a.527.527,0,0,0-.47-.419.52.52,0,0,0-.5.377l-2.654,6.5H5.409A13.755,13.755,0,0,1,4.3,63.945c.705-2.976,3.024-6.162,6.517-6.162a7.385,7.385,0,0,1,2.889.671,15.634,15.634,0,0,1,3.8,2.431.438.438,0,0,0,.672,0,14.047,14.047,0,0,1,3.8-2.431,6.716,6.716,0,0,1,2.889-.671c3.46,0,5.812,3.186,6.517,6.162A13.483,13.483,0,0,1,30.571,71.868Z" transform="translate(0 -56.4)"/></g></g></svg>