<svg xmlns="http://www.w3.org/2000/svg" style="width: 100%; padding-bottom: 92%; height: 1px; overflow: visible" viewBox="0 0 44.355 44.318"><defs><style>.a{fill:#fff;}.b{fill:none;stroke:#fff;stroke-linecap:round;stroke-width:1.5px;}</style></defs><g transform="translate(-229.584 -579)"><path class="a" d="M-21.13,109.014a.869.869,0,0,0,.87-.87v-4.515h4.351a.87.87,0,0,0,.87-.87.87.87,0,0,0-.87-.87H-21.13a.87.87,0,0,0-.87.87v5.384a.87.87,0,0,0,.87.87Zm0,0" transform="translate(251.584 477.11)"/><path class="a" d="M523.134,101.89h-5.22a.87.87,0,1,0,0,1.739h4.351v4.515a.87.87,0,0,0,1.739,0V102.76a.87.87,0,0,0-.87-.87Zm0,0" transform="translate(-250.063 477.11)"/><path class="a" d="M-15.91,643.422h-4.351v-4.515a.869.869,0,0,0-.87-.87.87.87,0,0,0-.87.87v5.385a.87.87,0,0,0,.87.87h5.221a.87.87,0,0,0,.87-.87.87.87,0,0,0-.87-.87Zm0,0" transform="translate(251.584 -21.844)"/><path class="a" d="M523.134,638.038a.87.87,0,0,0-.87.87v4.515h-4.351a.87.87,0,1,0,0,1.74h5.22a.87.87,0,0,0,.87-.87v-5.385a.87.87,0,0,0-.87-.87Zm0,0" transform="translate(-250.063 -21.844)"/><line class="b" x2="36.905" transform="translate(233.743 601.794)"/></g></svg>