<svg xmlns="http://www.w3.org/2000/svg" style="width: 100%; padding-bottom: 92%; height: 1px; overflow: visible" viewBox="0 0 47.358 47.318"><defs><style>.a{fill:#fff;}</style></defs><g transform="translate(-192.584 -580)"><g transform="translate(192.584 580)"><path class="a" d="M55.211,178.467V191.31a.929.929,0,0,0,.929.929H68.983a.929.929,0,0,0,.929-.929v-2.435a.929.929,0,1,0-1.857,0v1.507H57.069V179.4H68.055v2.236a.929.929,0,1,0,1.857,0v-3.164a.929.929,0,0,0-.929-.929H56.14a.929.929,0,0,0-.929.929Zm0,0" transform="translate(-49.492 -171.935)"/><path class="a" d="M116.835,238.229a.928.928,0,0,0-.928.929v3.853a.929.929,0,0,0,.928.929h3.853a.929.929,0,0,0,.929-.929v-3.853a.929.929,0,0,0-.929-.929Zm2.925,3.853h-2v-2h2Zm0,0" transform="translate(-105.692 -228.13)"/><path class="a" d="M68.983,465.546H56.14a.929.929,0,0,0-.929.928v12.844a.929.929,0,0,0,.929.929H68.983a.929.929,0,0,0,.929-.929V466.474a.929.929,0,0,0-.929-.928Zm-.928,12.843H57.069V467.4H68.055Zm0,0" transform="translate(-49.492 -438.61)"/><path class="a" d="M345.019,192.238h12.844a.928.928,0,0,0,.928-.929V178.467a.929.929,0,0,0-.928-.929H345.019a.929.929,0,0,0-.929.929V191.31a.929.929,0,0,0,.929.929Zm.929-12.843h10.986v10.986H345.947Zm0,0" transform="translate(-316.974 -171.935)"/><path class="a" d="M358.791,479.318V466.474a.928.928,0,0,0-.928-.928H345.019a.929.929,0,0,0-.929.928v12.844a.929.929,0,0,0,.929.929h12.844a.928.928,0,0,0,.928-.929Zm-1.857-.928H345.947V467.4h10.986Zm0,0" transform="translate(-316.974 -438.61)"/><path class="a" d="M137.589,195.251a.929.929,0,0,0,0-1.857H121.308V177.076a.929.929,0,0,0-1.858,0v16.318H107.124a.929.929,0,0,0,0,1.857H119.45v16.1a.929.929,0,0,0,1.858,0v-16.1Zm0,0" transform="translate(-96.701 -170.647)"/><path class="a" d="M116.835,532.877h3.853a.929.929,0,0,0,.929-.929V528.1a.929.929,0,0,0-.929-.929h-3.853a.928.928,0,0,0-.928.929v3.853a.929.929,0,0,0,.928.929Zm.929-3.853h2v2h-2Zm0,0" transform="translate(-105.692 -495.667)"/><path class="a" d="M409.56,238.229h-3.853a.929.929,0,0,0-.929.929v3.853a.929.929,0,0,0,.929.929h3.853a.929.929,0,0,0,.929-.929v-3.853a.928.928,0,0,0-.929-.929Zm-.929,3.853h-2v-2h2Zm0,0" transform="translate(-373.167 -228.13)"/><path class="a" d="M405.707,532.877h3.853a.929.929,0,0,0,.929-.929V528.1a.928.928,0,0,0-.929-.929h-3.853a.929.929,0,0,0-.929.929v3.853a.929.929,0,0,0,.929.929Zm.929-3.853h2v2h-2Zm0,0" transform="translate(-373.167 -495.667)"/><path class="a" d="M55.641,408.739l-.05.012a.929.929,0,1,0,.426,1.808l.049-.012a.929.929,0,0,0-.426-1.808Zm0,0" transform="translate(-49.181 -385.987)"/><path class="a" d="M229.042,268.873l-.05.012a.929.929,0,1,0,.424,1.808l.05-.012a.929.929,0,0,0-.424-1.808Zm0,0" transform="translate(-209.738 -256.482)"/><path class="a" d="M-21.071,109.5a.928.928,0,0,0,.928-.928v-4.821H-15.5a.929.929,0,0,0,.929-.928.929.929,0,0,0-.929-.929h-5.574a.929.929,0,0,0-.929.929v5.749a.928.928,0,0,0,.929.928Zm0,0" transform="translate(22 -101.89)"/><path class="a" d="M523.546,101.89h-5.574a.929.929,0,1,0,0,1.857h4.645v4.821a.929.929,0,0,0,1.857,0v-5.749a.929.929,0,0,0-.928-.929Zm0,0" transform="translate(-477.116 -101.89)"/><path class="a" d="M-15.5,643.787h-4.646v-4.82a.928.928,0,0,0-.928-.928.929.929,0,0,0-.929.928v5.749a.929.929,0,0,0,.929.929H-15.5a.929.929,0,0,0,.929-.929.929.929,0,0,0-.929-.929Zm0,0" transform="translate(22 -598.326)"/><path class="a" d="M523.546,638.038a.928.928,0,0,0-.929.928v4.82h-4.645a.929.929,0,1,0,0,1.857h5.574a.929.929,0,0,0,.928-.929v-5.749a.929.929,0,0,0-.928-.928Zm0,0" transform="translate(-477.116 -598.326)"/></g></g></svg>